<svg data-v-fde0c5aa="" xmlns="http://www.w3.org/2000/svg" viewBox="0 0 300 300" class="font"><!----><defs data-v-fde0c5aa=""><!----></defs><rect data-v-fde0c5aa="" fill="transparent" x="0" y="0" width="300px" height="300px" class="logo-background-square"></rect><defs data-v-fde0c5aa=""><linearGradient data-v-fde0c5aa="" gradientTransform="rotate(25)" id="6d08bc42-ff84-421e-b973-310621de4e11" x1="0%" y1="0%" x2="100%" y2="0%"><stop data-v-fde0c5aa="" offset="0%" stop-color="#8C48D2" stop-opacity="1"></stop><stop data-v-fde0c5aa="" offset="100%" stop-color="#CF705A" stop-opacity="1"></stop></linearGradient></defs><g data-v-fde0c5aa="" id="12200805-c25e-4173-902a-badfee06b4f1" fill="url(#6d08bc42-ff84-421e-b973-310621de4e11)" transform="matrix(4.5520378991303465,0,0,4.5520378991303465,34.40099329724646,100.54210926782758)"><path d="M1.23 4.58L1.23 14.35L4.97 14.35C6.48 14.35 7.60 13.12 7.60 11.54C7.60 10.18 6.80 9.49 5.71 9.24L5.71 9.20C6.61 8.92 7.24 8.26 7.24 7.10C7.24 5.57 6.22 4.58 4.55 4.58ZM4.62 13.33L2.41 13.33L2.41 9.79L4.62 9.79C5.70 9.79 6.36 10.29 6.36 11.27L6.36 11.84C6.36 12.84 5.70 13.33 4.62 13.33ZM4.42 8.82L2.41 8.82L2.41 5.60L4.42 5.60C5.40 5.60 6.01 6.05 6.01 6.94L6.01 7.49C6.01 8.39 5.40 8.82 4.42 8.82ZM12.60 14.52C14.63 14.52 15.88 13.03 15.88 10.74C15.88 8.44 14.63 6.96 12.60 6.96C10.57 6.96 9.32 8.44 9.32 10.74C9.32 13.03 10.57 14.52 12.60 14.52ZM12.60 13.55C11.35 13.55 10.51 12.81 10.51 11.26L10.51 10.22C10.51 8.67 11.35 7.92 12.60 7.92C13.85 7.92 14.69 8.67 14.69 10.22L14.69 11.26C14.69 12.81 13.85 13.55 12.60 13.55ZM18.17 14.35L19.29 14.35L19.29 9.34C19.29 8.39 20.19 7.95 21.08 7.95C22.19 7.95 22.79 8.60 22.79 9.91L22.79 14.35L23.91 14.35L23.91 9.72C23.91 7.97 22.92 6.96 21.41 6.96C20.22 6.96 19.66 7.59 19.35 8.30L19.29 8.30L19.29 7.13L18.17 7.13ZM31.93 14.35L33.18 14.35L30.18 4.58L28.63 4.58L25.63 14.35L26.85 14.35L27.68 11.56L31.11 11.56ZM29.46 5.82L30.83 10.54L27.96 10.54L29.33 5.82ZM34.93 7.13L34.93 17.15L36.05 17.15L36.05 13.17L36.11 13.17C36.57 14.06 37.32 14.52 38.33 14.52C40.10 14.52 41.16 13.10 41.16 10.74C41.16 8.37 40.10 6.96 38.33 6.96C37.32 6.96 36.57 7.42 36.11 8.30L36.05 8.30L36.05 7.13ZM37.90 13.52C36.90 13.52 36.05 13.01 36.05 12.04L36.05 9.44C36.05 8.47 36.90 7.95 37.90 7.95C39.20 7.95 39.96 8.82 39.96 10.12L39.96 11.35C39.96 12.66 39.20 13.52 37.90 13.52ZM43.33 7.13L43.33 17.15L44.45 17.15L44.45 13.17L44.51 13.17C44.97 14.06 45.72 14.52 46.73 14.52C48.50 14.52 49.56 13.10 49.56 10.74C49.56 8.37 48.50 6.96 46.73 6.96C45.72 6.96 44.97 7.42 44.51 8.30L44.45 8.30L44.45 7.13ZM46.30 13.52C45.30 13.52 44.45 13.01 44.45 12.04L44.45 9.44C44.45 8.47 45.30 7.95 46.30 7.95C47.60 7.95 48.36 8.82 48.36 10.12L48.36 11.35C48.36 12.66 47.60 13.52 46.30 13.52Z"></path></g><!----><!----></svg>