<?xml version="1.0" encoding="utf-8"?>
<!-- Generator: Adobe Illustrator 15.1.0, SVG Export Plug-In  -->
<!DOCTYPE svg PUBLIC "-//W3C//DTD SVG 1.1//EN" "http://www.w3.org/Graphics/SVG/1.1/DTD/svg11.dtd" [
	<!ENTITY ns_flows "http://ns.adobe.com/Flows/1.0/">
]>
<svg version="1.1"
	 xmlns="http://www.w3.org/2000/svg" xmlns:xlink="http://www.w3.org/1999/xlink" xmlns:a="http://ns.adobe.com/AdobeSVGViewerExtensions/3.0/"
	 x="0px" y="0px" width="559px" height="168px" viewBox="-0.253 -0.277 559 168"
	 overflow="visible" enable-background="new -0.253 -0.277 559 168" xml:space="preserve">
<defs>
</defs>
<path fill="#FFFFFF" d="M83.743,0C37.494,0,0,37.493,0,83.742c0,46.25,37.494,83.741,83.743,83.741
	c46.254,0,83.744-37.49,83.744-83.741c0-46.246-37.49-83.738-83.745-83.738L83.743,0z M122.147,120.78
	c-1.5,2.461-4.72,3.24-7.18,1.73c-19.662-12.01-44.414-14.73-73.564-8.07c-2.809,0.641-5.609-1.119-6.249-3.93
	c-0.643-2.811,1.11-5.61,3.926-6.25c31.9-7.288,59.263-4.15,81.337,9.34C122.877,115.11,123.657,118.321,122.147,120.78z
	 M132.397,97.978c-1.89,3.072-5.91,4.042-8.98,2.152c-22.51-13.837-56.823-17.843-83.448-9.761c-3.453,1.043-7.1-0.903-8.148-4.351
	c-1.04-3.453,0.907-7.093,4.354-8.143c30.413-9.228,68.222-4.758,94.072,11.126C133.317,90.893,134.287,94.913,132.397,97.978
	L132.397,97.978z M133.277,74.234c-26.99-16.031-71.52-17.505-97.289-9.684c-4.138,1.255-8.514-1.081-9.768-5.219
	c-1.254-4.14,1.08-8.513,5.221-9.771c29.581-8.98,78.756-7.245,109.83,11.202c3.73,2.209,4.95,7.016,2.74,10.733
	c-2.2,3.722-7.02,4.949-10.73,2.739H133.277z M227.837,77.306c-14.46-3.448-17.03-5.868-17.03-10.953
	c0-4.804,4.52-8.037,11.25-8.037c6.52,0,12.98,2.455,19.76,7.509c0.2,0.153,0.46,0.214,0.71,0.174c0.26-0.038,0.48-0.177,0.63-0.386
	l7.06-9.952c0.29-0.41,0.21-0.975-0.18-1.288c-8.07-6.473-17.15-9.62-27.77-9.62c-15.61,0-26.52,9.369-26.52,22.774
	c0,14.375,9.41,19.465,25.67,23.394c13.83,3.187,16.17,5.856,16.17,10.629c0,5.29-4.72,8.58-12.32,8.58
	c-8.44,0-15.33-2.851-23.03-9.511c-0.19-0.17-0.45-0.239-0.69-0.229c-0.26,0.021-0.49,0.14-0.65,0.33l-7.92,9.42
	c-0.33,0.399-0.29,0.979,0.09,1.319c8.96,8,19.98,12.221,31.88,12.221c16.82,0,27.69-9.189,27.69-23.42
	c0.03-12.008-7.16-18.657-24.77-22.941L227.837,77.306z M290.697,63.046c-7.29,0-13.27,2.872-18.21,8.757v-6.624
	c0-0.523-0.42-0.949-0.94-0.949h-12.95c-0.52,0-0.94,0.426-0.94,0.949v73.601c0,0.521,0.42,0.95,0.94,0.95h12.95
	c0.52,0,0.94-0.43,0.94-0.95V115.55c4.94,5.53,10.92,8.239,18.21,8.239c13.55,0,27.27-10.43,27.27-30.368
	c0.021-19.943-13.7-30.376-27.26-30.376L290.697,63.046L290.697,63.046z M302.907,93.421c0,10.149-6.25,17.239-15.21,17.239
	c-8.85,0-15.53-7.41-15.53-17.239c0-9.83,6.68-17.238,15.53-17.238C296.507,76.182,302.907,83.43,302.907,93.421L302.907,93.421z
	 M353.117,63.046c-17.45,0-31.12,13.436-31.12,30.592c0,16.972,13.58,30.262,30.91,30.262c17.51,0,31.22-13.39,31.22-30.479
	c0-17.031-13.62-30.373-31.01-30.373V63.046z M353.117,110.76c-9.28,0-16.28-7.46-16.28-17.344c0-9.929,6.76-17.134,16.07-17.134
	c9.34,0,16.38,7.457,16.38,17.351C369.287,103.56,362.487,110.76,353.117,110.76z M421.387,64.23h-14.25V49.664
	c0-0.522-0.42-0.948-0.939-0.948h-12.95c-0.52,0-0.95,0.426-0.95,0.948V64.23h-6.22c-0.521,0-0.94,0.426-0.94,0.949v11.127
	c0,0.522,0.42,0.949,0.94,0.949h6.22v28.795c0,11.63,5.79,17.53,17.22,17.53c4.641,0,8.49-0.961,12.12-3.021
	c0.3-0.16,0.48-0.479,0.48-0.819V109.14c0-0.319-0.17-0.63-0.45-0.8c-0.28-0.18-0.63-0.19-0.92-0.04c-2.49,1.25-4.9,1.83-7.6,1.83
	c-4.15,0-6.011-1.89-6.011-6.11V77.26h14.25c0.521,0,0.94-0.426,0.94-0.949V65.185c0.02-0.523-0.4-0.949-0.93-0.949L421.387,64.23
	L421.387,64.23z M471.027,64.287v-1.789c0-5.263,2.02-7.61,6.54-7.61c2.699,0,4.87,0.536,7.3,1.346
	c0.3,0.094,0.609,0.047,0.85-0.132c0.25-0.179,0.391-0.466,0.391-0.77v-10.91c0-0.417-0.261-0.786-0.67-0.909
	c-2.561-0.763-5.841-1.546-10.761-1.546c-11.95,0-18.279,6.734-18.279,19.467v2.74h-6.221c-0.52,0-0.95,0.426-0.95,0.948v11.184
	c0,0.522,0.431,0.949,0.95,0.949h6.221v44.405c0,0.529,0.43,0.949,0.949,0.949h12.94c0.53,0,0.95-0.42,0.95-0.949V77.258h12.09
	l18.52,44.402c-2.1,4.66-4.17,5.59-6.989,5.59c-2.28,0-4.69-0.68-7.141-2.03c-0.229-0.12-0.51-0.14-0.75-0.07
	c-0.25,0.091-0.46,0.271-0.56,0.511l-4.391,9.629c-0.21,0.461-0.029,0.99,0.41,1.23c4.58,2.48,8.71,3.54,13.82,3.54
	c9.56,0,14.85-4.46,19.5-16.44l22.46-58.037c0.12-0.292,0.08-0.622-0.1-0.881c-0.17-0.257-0.46-0.412-0.771-0.412h-13.479
	c-0.41,0-0.771,0.257-0.9,0.636l-13.81,39.434l-15.12-39.46c-0.141-0.367-0.49-0.61-0.88-0.61h-22.12V64.287L471.027,64.287z
	 M442.247,64.23h-12.95c-0.52,0-0.95,0.426-0.95,0.949v56.481c0,0.529,0.431,0.949,0.95,0.949h12.95c0.52,0,0.95-0.42,0.95-0.949
	V65.183c0-0.523-0.42-0.949-0.95-0.949V64.23L442.247,64.23z M435.847,38.511c-5.13,0-9.29,4.152-9.29,9.281
	c0,5.132,4.16,9.289,9.29,9.289c5.131,0,9.28-4.157,9.28-9.289C445.127,42.664,440.967,38.511,435.847,38.511z M549.267,82.391
	c-5.119,0-9.109-4.115-9.109-9.112s4.04-9.159,9.16-9.159c5.119,0,9.109,4.114,9.109,9.107
	C558.427,78.224,554.387,82.391,549.267,82.391z M549.317,65.026c-4.67,0-8.2,3.71-8.2,8.253c0,4.541,3.51,8.201,8.149,8.201
	c4.67,0,8.2-3.707,8.2-8.253C557.467,68.686,553.957,65.026,549.317,65.026z M551.337,74.164l2.58,3.608h-2.18l-2.32-3.31h-1.99
	v3.31h-1.819v-9.564h4.26c2.229,0,3.689,1.137,3.689,3.051c0.011,1.568-0.899,2.526-2.21,2.905H551.337z M549.797,69.849h-2.37
	v3.025h2.37c1.181,0,1.891-0.579,1.891-1.514C551.688,70.376,550.978,69.849,549.797,69.849z"/>
</svg>
